<?xml version="1.0" encoding="UTF-8"?>
<svg xmlns="http://www.w3.org/2000/svg" width="128" height="128" viewBox="0 0 24 24" fill="none">
  <title>Icono colorido de programación</title>
  <desc>Un icono colorido de un portátil con símbolos de código, ideal para una web de tecnología o programación.</desc>
  <!-- Fondo con gradiente -->
  <defs>
    <linearGradient id="bgGradient" x1="0" y1="0" x2="1" y2="1">
      <stop offset="0%" stop-color="#4f46e5"/>
      <stop offset="100%" stop-color="#06b6d4"/>
    </linearGradient>
    <linearGradient id="screenGradient" x1="0" y1="0" x2="1" y2="1">
      <stop offset="0%" stop-color="#0ea5e9"/>
      <stop offset="100%" stop-color="#22d3ee"/>
    </linearGradient>
    <linearGradient id="keyboardGradient" x1="0" y1="0" x2="1" y2="0">
      <stop offset="0%" stop-color="#6366f1"/>
      <stop offset="100%" stop-color="#a855f7"/>
    </linearGradient>
  </defs>

  <!-- Laptop body -->
  <rect x="3" y="4.5" width="18" height="12" rx="2" fill="url(#bgGradient)" stroke="#1e1b4b" stroke-width="0.5"/>
  <!-- Screen inner bezel -->
  <rect x="5" y="6.5" width="14" height="8" rx="1.25" fill="url(#screenGradient)" stroke="#1e1b4b" stroke-width="0.3"/>
  <!-- Keyboard base -->
  <path d="M2.5 18.5h19" stroke="#1e1b4b" stroke-width="0.5"/>
  <path d="M4.5 18.5a2 2 0 0 0 2 2h11a2 2 0 0 0 2-2" fill="url(#keyboardGradient)" stroke="#1e1b4b" stroke-width="0.5"/>

  <!-- Code symbols on screen -->
  <path d="M9.25 10.5l-1.75 1.5l1.75 1.5" stroke="#facc15" stroke-width="0.8" stroke-linecap="round" stroke-linejoin="round"/>
  <path d="M14.75 10.5l1.75 1.5l-1.75 1.5" stroke="#facc15" stroke-width="0.8" stroke-linecap="round" stroke-linejoin="round"/>
  <path d="M12.25 9.75l-1.5 4.5" stroke="#fde047" stroke-width="0.8" stroke-linecap="round"/>
  <!-- Cursor / caret -->
  <circle cx="12" cy="8.25" r="0.5" fill="#fff176"/>
  <!-- Sparkle -->
  <path d="M18.5 5.2l.4.9l.9.4l-.9.4l-.4.9l-.4-.9l-.9-.4l.9-.4l.4-.9z" fill="#f472b6"/>
</svg>
